<svg xmlns="http://www.w3.org/2000/svg" xmlns:xlink="http://www.w3.org/1999/xlink" contentStyleType="text/css" data-diagram-type="DESCRIPTION" height="1370px" preserveAspectRatio="none" style="width:648px;height:1370px;background:#FFFFFF;" version="1.1" viewBox="0 0 648 1370" width="648px" zoomAndPan="magnify"><?plantuml 1.2026.3beta4?><defs/><g><!--cluster Sistema de Pedidos do Restaurante--><g class="cluster" data-qualified-name="Sistema de Pedidos do Restaurante" data-source-line="10" id="ent0005"><rect fill="none" height="1349" rx="2.5" ry="2.5" style="stroke:#181818;stroke-width:1;" width="369.03" x="265.33" y="7"/><text fill="#000000" font-family="sans-serif" font-size="14" font-weight="bold" lengthAdjust="spacing" textLength="281.8594" x="308.9153" y="21.9951">Sistema de Pedidos do Restaurante</text></g><!--entity UC01--><g class="entity" data-qualified-name="Sistema de Pedidos do Restaurante.UC01" data-source-line="13" id="ent0006"><ellipse cx="449.8445" cy="340.0029" fill="#F1F1F1" rx="104.9145" ry="23.3829" style="stroke:#181818;stroke-width:0.5;"/><text fill="#000000" font-family="sans-serif" font-size="14" lengthAdjust="spacing" textLength="186.833" x="356.428" y="344.6513">UC01 - Visualizar Card&#225;pio</text></g><!--entity UC02--><g class="entity" data-qualified-name="Sistema de Pedidos do Restaurante.UC02" data-source-line="14" id="ent0007"><ellipse cx="449.8378" cy="429.0036" fill="#F1F1F1" rx="142.5678" ry="30.9136" style="stroke:#181818;stroke-width:0.5;"/><text fill="#000000" font-family="sans-serif" font-size="14" lengthAdjust="spacing" textLength="266.9775" x="316.3491" y="433.652">UC02 - Visualizar Detalhes do Produto</text></g><!--entity UC03--><g class="entity" data-qualified-name="Sistema de Pedidos do Restaurante.UC03" data-source-line="15" id="ent0008"><ellipse cx="449.8353" cy="260.9971" fill="#F1F1F1" rx="92.7353" ry="20.9471" style="stroke:#181818;stroke-width:0.5;"/><text fill="#000000" font-family="sans-serif" font-size="14" lengthAdjust="spacing" textLength="159.9063" x="369.8822" y="265.6455">UC03 - Realizar Pedido</text></g><!--entity UC04--><g class="entity" data-qualified-name="Sistema de Pedidos do Restaurante.UC04" data-source-line="16" id="ent0009"><ellipse cx="449.8381" cy="160.9976" fill="#F1F1F1" rx="126.9881" ry="27.7976" style="stroke:#181818;stroke-width:0.5;"/><text fill="#000000" font-family="sans-serif" font-size="14" lengthAdjust="spacing" textLength="234.2061" x="332.7351" y="165.6461">UC04 - Informar Dados do Pedido</text></g><!--entity UC05--><g class="entity" data-qualified-name="Sistema de Pedidos do Restaurante.UC05" data-source-line="17" id="ent0010"><ellipse cx="449.837" cy="69.9954" fill="#F1F1F1" rx="130.477" ry="28.4954" style="stroke:#181818;stroke-width:0.5;"/><text fill="#000000" font-family="sans-serif" font-size="14" lengthAdjust="spacing" textLength="241.582" x="329.046" y="74.6438">UC05 - Consultar Status do Pedido</text></g><!--entity UC06--><g class="entity" data-qualified-name="Sistema de Pedidos do Restaurante.UC06" data-source-line="20" id="ent0011"><ellipse cx="449.8417" cy="514.9963" fill="#F1F1F1" rx="88.6317" ry="20.1263" style="stroke:#181818;stroke-width:0.5;"/><text fill="#000000" font-family="sans-serif" font-size="14" lengthAdjust="spacing" textLength="150.6367" x="374.5233" y="519.6448">UC06 - Realizar Login</text></g><!--entity UC07--><g class="entity" data-qualified-name="Sistema de Pedidos do Restaurante.UC07" data-source-line="21" id="ent0012"><ellipse cx="449.8417" cy="1219.9963" fill="#F1F1F1" rx="139.1817" ry="30.2363" style="stroke:#181818;stroke-width:0.5;"/><text fill="#000000" font-family="sans-serif" font-size="14" lengthAdjust="spacing" textLength="259.8887" x="319.8974" y="1224.6448">UC07 - Acessar Painel Administrativo</text></g><!--entity UC08--><g class="entity" data-qualified-name="Sistema de Pedidos do Restaurante.UC08" data-source-line="22" id="ent0013"><ellipse cx="449.84" cy="764.004" fill="#F1F1F1" rx="101.57" ry="22.714" style="stroke:#181818;stroke-width:0.5;"/><text fill="#000000" font-family="sans-serif" font-size="14" lengthAdjust="spacing" textLength="179.5117" x="360.0841" y="768.6524">UC08 - Cadastrar Produto</text></g><!--entity UC09--><g class="entity" data-qualified-name="Sistema de Pedidos do Restaurante.UC09" data-source-line="23" id="ent0014"><ellipse cx="449.838" cy="841.9996" fill="#F1F1F1" rx="89.348" ry="20.2696" style="stroke:#181818;stroke-width:0.5;"/><text fill="#000000" font-family="sans-serif" font-size="14" lengthAdjust="spacing" textLength="152.2637" x="373.7062" y="846.648">UC09 - Editar Produto</text></g><!--entity UC10--><g class="entity" data-qualified-name="Sistema de Pedidos do Restaurante.UC10" data-source-line="24" id="ent0015"><ellipse cx="449.844" cy="926.9988" fill="#F1F1F1" rx="136.344" ry="29.6688" style="stroke:#181818;stroke-width:0.5;"/><text fill="#000000" font-family="sans-serif" font-size="14" lengthAdjust="spacing" textLength="253.9346" x="322.8767" y="931.6472">UC10 - Remover ou Inativar Produto</text></g><!--entity UC11--><g class="entity" data-qualified-name="Sistema de Pedidos do Restaurante.UC11" data-source-line="25" id="ent0016"><ellipse cx="449.8418" cy="1028.0024" fill="#F1F1F1" rx="168.5118" ry="36.1024" style="stroke:#181818;stroke-width:0.5;"/><text fill="#000000" font-family="sans-serif" font-size="14" lengthAdjust="spacing" textLength="320.8379" x="289.4229" y="1032.6508">UC11 - Gerenciar Disponibilidade de Produtos</text></g><!--entity UC12--><g class="entity" data-qualified-name="Sistema de Pedidos do Restaurante.UC12" data-source-line="26" id="ent0017"><ellipse cx="449.8365" cy="684.0013" fill="#F1F1F1" rx="101.1065" ry="22.6213" style="stroke:#181818;stroke-width:0.5;"/><text fill="#000000" font-family="sans-serif" font-size="14" lengthAdjust="spacing" textLength="178.4932" x="360.5899" y="688.6497">UC12 - Visualizar Pedidos</text></g><!--entity UC13--><g class="entity" data-qualified-name="Sistema de Pedidos do Restaurante.UC13" data-source-line="27" id="ent0018"><ellipse cx="449.8372" cy="1127.0014" fill="#F1F1F1" rx="128.0572" ry="28.0114" style="stroke:#181818;stroke-width:0.5;"/><text fill="#000000" font-family="sans-serif" font-size="14" lengthAdjust="spacing" textLength="236.4688" x="331.6028" y="1131.6499">UC13 - Atualizar Status do Pedido</text></g><!--entity UC14--><g class="entity" data-qualified-name="Sistema de Pedidos do Restaurante.UC14" data-source-line="28" id="ent0019"><ellipse cx="449.843" cy="589.9966" fill="#F1F1F1" rx="89.333" ry="20.2666" style="stroke:#181818;stroke-width:0.5;"/><text fill="#000000" font-family="sans-serif" font-size="14" lengthAdjust="spacing" textLength="152.2295" x="373.7282" y="594.645">UC14 - Filtrar Pedidos</text></g><!--entity UC15--><g class="entity" data-qualified-name="Sistema de Pedidos do Restaurante.UC15" data-source-line="31" id="ent0020"><ellipse cx="449.8362" cy="1312.9952" fill="#F1F1F1" rx="124.6762" ry="27.3352" style="stroke:#181818;stroke-width:0.5;"/><text fill="#000000" font-family="sans-serif" font-size="14" lengthAdjust="spacing" textLength="229.3047" x="335.1838" y="1317.6437">UC15 - Visualizar Fila de Pedidos</text></g><!--entity CLI--><g class="entity" data-qualified-name="CLI" data-source-line="6" id="ent0002"><ellipse cx="80.17" cy="278.85" fill="#F1F1F1" rx="16" ry="16" style="stroke:#181818;stroke-width:0.5;"/><path d="M80.17,298.85 C84.17,298.85 87.17,298.85 91.17,294.85 C99.17,294.85 107.17,302.85 107.17,310.85 L107.17,314.85 C107.17,318.85 103.17,322.85 99.17,322.85 L61.17,322.85 C57.17,322.85 53.17,318.85 53.17,314.85 L53.17,310.85 C53.17,302.85 61.17,294.85 69.17,294.85 C73.17,298.85 76.17,298.85 80.17,298.85" fill="#F1F1F1" style="stroke:#181818;stroke-width:0.5;"/><text fill="#000000" font-family="sans-serif" font-size="14" lengthAdjust="spacing" textLength="49.1436" x="55.5982" y="336.3451">Cliente</text></g><!--entity ADM--><g class="entity" data-qualified-name="ADM" data-source-line="7" id="ent0003"><ellipse cx="80.17" cy="819.85" fill="#F1F1F1" rx="16" ry="16" style="stroke:#181818;stroke-width:0.5;"/><path d="M80.17,839.85 C84.17,839.85 87.17,839.85 91.17,835.85 C99.17,835.85 107.17,843.85 107.17,851.85 L107.17,855.85 C107.17,859.85 103.17,863.85 99.17,863.85 L61.17,863.85 C57.17,863.85 53.17,859.85 53.17,855.85 L53.17,851.85 C53.17,843.85 61.17,835.85 69.17,835.85 C73.17,839.85 76.17,839.85 80.17,839.85" fill="#F1F1F1" style="stroke:#181818;stroke-width:0.5;"/><text fill="#000000" font-family="sans-serif" font-size="14" lengthAdjust="spacing" textLength="99.0801" x="30.63" y="877.3451">Administrador</text></g><!--entity COZ--><g class="entity" data-qualified-name="COZ" data-source-line="8" id="ent0004"><ellipse cx="80.1665" cy="1238.85" fill="#F1F1F1" rx="16" ry="16" style="stroke:#181818;stroke-width:0.5;"/><path d="M80.1665,1258.85 C84.1665,1258.85 87.1665,1258.85 91.1665,1254.85 C99.1665,1254.85 107.1665,1262.85 107.1665,1270.85 L107.1665,1274.85 C107.1665,1278.85 103.1665,1282.85 99.1665,1282.85 L61.1665,1282.85 C57.1665,1282.85 53.1665,1278.85 53.1665,1274.85 L53.1665,1270.85 C53.1665,1262.85 61.1665,1254.85 69.1665,1254.85 C73.1665,1258.85 76.1665,1258.85 80.1665,1258.85" fill="#F1F1F1" style="stroke:#181818;stroke-width:0.5;"/><text fill="#000000" font-family="sans-serif" font-size="14" lengthAdjust="spacing" textLength="148.333" x="6" y="1296.3451">Operador da Cozinha</text></g><!--link CLI to UC01--><g class="link" data-entity-1="ent0002" data-entity-2="ent0006" data-link-type="dependency" data-source-line="34" id="lnk21"><path d="M107.91,303.84 C158.89,309.24 266.2435,320.6265 348.2735,329.3365" fill="none" id="CLI-to-UC01" style="stroke:#181818;stroke-width:1;"/><polygon fill="#181818" points="354.24,329.97,345.7127,325.0421,349.2679,329.4421,344.868,332.9974,354.24,329.97" style="stroke:#181818;stroke-width:1;"/></g><!--link CLI to UC02--><g class="link" data-entity-1="ent0002" data-entity-2="ent0007" data-link-type="dependency" data-source-line="35" id="lnk22"><path d="M108,315.04 C142.01,332.39 202.79,361.95 257.33,381 C286.13,391.06 312.2365,398.4755 341.6265,405.7655" fill="none" id="CLI-to-UC02" style="stroke:#181818;stroke-width:1;"/><polygon fill="#181818" points="347.45,407.21,339.6777,401.1609,342.5971,406.0063,337.7517,408.9256,347.45,407.21" style="stroke:#181818;stroke-width:1;"/></g><!--link CLI to UC03--><g class="link" data-entity-1="ent0002" data-entity-2="ent0008" data-link-type="dependency" data-source-line="36" id="lnk23"><path d="M107.91,298.09 C161.28,292.28 277.0352,279.6886 359.6252,270.7086" fill="none" id="CLI-to-UC03" style="stroke:#181818;stroke-width:1;"/><polygon fill="#181818" points="365.59,270.06,356.2104,267.0563,360.6193,270.6005,357.0751,275.0094,365.59,270.06" style="stroke:#181818;stroke-width:1;"/></g><!--link CLI to UC05--><g class="link" data-entity-1="ent0002" data-entity-2="ent0010" data-link-type="dependency" data-source-line="37" id="lnk24"><path d="M107.53,262.11 C138.41,219.63 193.54,152.76 257.33,116 C281.92,101.83 304.8735,93.4424 332.5335,86.6424" fill="none" id="CLI-to-UC05" style="stroke:#181818;stroke-width:1;"/><polygon fill="#181818" points="338.36,85.21,328.6653,83.4743,333.5046,86.4037,330.5752,91.2429,338.36,85.21" style="stroke:#181818;stroke-width:1;"/></g><!--link ADM to UC06--><g class="link" data-entity-1="ent0003" data-entity-2="ent0011" data-link-type="dependency" data-source-line="40" id="lnk25"><path d="M92.39,803.02 C113.2,738.56 164.33,611.03 257.33,552 C288.21,532.4 321.1721,523.5392 355.8421,518.9392" fill="none" id="ADM-to-UC06" style="stroke:#181818;stroke-width:1;"/><polygon fill="#181818" points="361.79,518.15,352.3421,515.3685,356.8334,518.8076,353.3943,523.299,361.79,518.15" style="stroke:#181818;stroke-width:1;"/></g><!--link ADM to UC07--><g class="link" data-entity-1="ent0003" data-entity-2="ent0012" data-link-type="dependency" data-source-line="41" id="lnk26"><path d="M88.97,881.07 C105.64,953.07 152.13,1105.52 257.33,1173 C279.38,1187.14 299.5576,1195.4653 325.1376,1202.3753" fill="none" id="ADM-to-UC07" style="stroke:#181818;stroke-width:1;"/><polygon fill="#181818" points="330.93,1203.94,323.2846,1197.7313,326.103,1202.6361,321.1983,1205.4545,330.93,1203.94" style="stroke:#181818;stroke-width:1;"/></g><!--link ADM to UC08--><g class="link" data-entity-1="ent0003" data-entity-2="ent0013" data-link-type="dependency" data-source-line="42" id="lnk27"><path d="M130.11,829.1 C147.21,824.75 166.58,819.98 184.33,816 C246.44,802.08 311.3127,789.3756 364.0127,779.4956" fill="none" id="ADM-to-UC08" style="stroke:#181818;stroke-width:1;"/><polygon fill="#181818" points="369.91,778.39,360.327,776.1169,364.9956,779.3113,361.8012,783.9799,369.91,778.39" style="stroke:#181818;stroke-width:1;"/></g><!--link ADM to UC09--><g class="link" data-entity-1="ent0003" data-entity-2="ent0014" data-link-type="dependency" data-source-line="43" id="lnk28"><path d="M129.99,842 C188.59,842 281.99,842 354.26,842" fill="none" id="ADM-to-UC09" style="stroke:#181818;stroke-width:1;"/><polygon fill="#181818" points="360.26,842,351.26,838,355.26,842,351.26,846,360.26,842" style="stroke:#181818;stroke-width:1;"/></g><!--link ADM to UC10--><g class="link" data-entity-1="ent0003" data-entity-2="ent0015" data-link-type="dependency" data-source-line="44" id="lnk29"><path d="M130.18,874.97 C146.72,884.59 165.73,894.1 184.33,900 C225.37,913.01 265.624,919.5834 307.834,923.3734" fill="none" id="ADM-to-UC10" style="stroke:#181818;stroke-width:1;"/><polygon fill="#181818" points="313.81,923.91,305.2038,919.1212,308.83,923.4629,304.4883,927.0891,313.81,923.91" style="stroke:#181818;stroke-width:1;"/></g><!--link ADM to UC11--><g class="link" data-entity-1="ent0003" data-entity-2="ent0016" data-link-type="dependency" data-source-line="45" id="lnk30"><path d="M128.9,881.1 C146.16,894.92 165.93,910.41 184.33,924 C215.97,947.36 221.71,957.33 257.33,974 C280.88,985.02 301.3775,992.5145 326.7075,1000.0245" fill="none" id="ADM-to-UC11" style="stroke:#181818;stroke-width:1;"/><polygon fill="#181818" points="332.46,1001.73,324.9683,995.3367,327.6663,1000.3087,322.6942,1003.0067,332.46,1001.73" style="stroke:#181818;stroke-width:1;"/></g><!--link ADM to UC12--><g class="link" data-entity-1="ent0003" data-entity-2="ent0017" data-link-type="dependency" data-source-line="46" id="lnk31"><path d="M128.37,803.02 C162.28,776.92 210.17,743.83 257.33,724 C289.9,710.31 321.707,702.2142 355.007,696.1542" fill="none" id="ADM-to-UC12" style="stroke:#181818;stroke-width:1;"/><polygon fill="#181818" points="360.91,695.08,351.3393,692.756,355.9908,695.9752,352.7716,700.6267,360.91,695.08" style="stroke:#181818;stroke-width:1;"/></g><!--link ADM to UC13--><g class="link" data-entity-1="ent0003" data-entity-2="ent0018" data-link-type="dependency" data-source-line="47" id="lnk32"><path d="M98.89,881.13 C125.4,935.05 180.59,1031.26 257.33,1082 C280.48,1097.3 302.405,1105.9915 329.495,1112.6815" fill="none" id="ADM-to-UC13" style="stroke:#181818;stroke-width:1;"/><polygon fill="#181818" points="335.32,1114.12,327.5415,1108.0789,330.4658,1112.9212,325.6235,1115.8456,335.32,1114.12" style="stroke:#181818;stroke-width:1;"/></g><!--link ADM to UC14--><g class="link" data-entity-1="ent0003" data-entity-2="ent0019" data-link-type="dependency" data-source-line="48" id="lnk33"><path d="M105,803.2 C134.9,757.91 190.45,684.11 257.33,644 C293.18,622.5 332.0633,610.5178 369.2833,602.5378" fill="none" id="ADM-to-UC14" style="stroke:#181818;stroke-width:1;"/><polygon fill="#181818" points="375.15,601.28,365.5114,599.2556,370.2611,602.3282,367.1885,607.0778,375.15,601.28" style="stroke:#181818;stroke-width:1;"/></g><!--link COZ to UC15--><g class="link" data-entity-1="ent0004" data-entity-2="ent0020" data-link-type="dependency" data-source-line="51" id="lnk34"><path d="M154.69,1271.4 C208.97,1279.07 277.6592,1288.7896 338.1692,1297.3496" fill="none" id="COZ-to-UC15" style="stroke:#181818;stroke-width:1;"/><polygon fill="#181818" points="344.11,1298.19,335.759,1292.9688,339.1593,1297.4897,334.6384,1300.8899,344.11,1298.19" style="stroke:#181818;stroke-width:1;"/></g><!--link COZ to UC13--><g class="link" data-entity-1="ent0004" data-entity-2="ent0018" data-link-type="dependency" data-source-line="52" id="lnk35"><path d="M148.93,1222.02 C181,1204.82 220.31,1185.49 257.33,1172 C287.34,1161.07 315.1189,1153.4485 345.7289,1146.4985" fill="none" id="COZ-to-UC13" style="stroke:#181818;stroke-width:1;"/><polygon fill="#181818" points="351.58,1145.17,341.9177,1143.262,346.7041,1146.2771,343.689,1151.0635,351.58,1145.17" style="stroke:#181818;stroke-width:1;"/></g><!--link UC03 to UC04--><g class="link" data-entity-1="ent0008" data-entity-2="ent0009" data-link-type="dependency" data-source-line="55" id="lnk36"><path d="M449.84,239.79 C449.84,225 449.84,211.11 449.84,195.01" fill="none" id="UC03-to-UC04" style="stroke:#181818;stroke-width:1;stroke-dasharray:7,7;"/><polygon fill="#181818" points="449.84,189.01,445.84,198.01,449.84,194.01,453.84,198.01,449.84,189.01" style="stroke:#181818;stroke-width:1;"/><text fill="#000000" font-family="sans-serif" font-size="13" lengthAdjust="spacing" textLength="63.0068" x="406.84" y="218.9969">&#171;include&#187;</text></g><!--link UC07 to UC06--><g class="link" data-entity-1="ent0012" data-entity-2="ent0011" data-link-type="dependency" data-source-line="56" id="lnk37"><path d="M317.97,1210.14 C294.97,1202.68 273.33,1191.01 257.33,1173 C173.93,1079.1 230.77,1017.86 223.17,892.5 C213.96,740.69 154.43,664 257.33,552 C283.93,523.05 319.7246,513.1089 357.5846,510.4589" fill="none" id="UC07-to-UC06" style="stroke:#181818;stroke-width:1;stroke-dasharray:7,7;"/><polygon fill="#181818" points="363.57,510.04,354.3127,506.6782,358.5822,510.3891,354.8713,514.6587,363.57,510.04" style="stroke:#181818;stroke-width:1;"/><text fill="#000000" font-family="sans-serif" font-size="13" lengthAdjust="spacing" textLength="63.0068" x="185.33" y="888.5669">&#171;include&#187;</text></g><!--link UC14 to UC12--><g class="link" data-entity-1="ent0019" data-entity-2="ent0017" data-link-type="dependency" data-source-line="57" id="lnk38"><path d="M449.84,610.62 C449.84,625.58 449.84,639.81 449.84,655.25" fill="none" id="UC14-to-UC12" style="stroke:#181818;stroke-width:1;stroke-dasharray:7,7;"/><polygon fill="#181818" points="449.84,661.25,453.84,652.25,449.84,656.25,445.84,652.25,449.84,661.25" style="stroke:#181818;stroke-width:1;"/><text fill="#000000" font-family="sans-serif" font-size="13" lengthAdjust="spacing" textLength="61.1851" x="407.84" y="640.3869">&#171;extend&#187;</text></g><?plantuml-src XLJBRjim4BphAnQvz9J0yZCfKWE2xBO672kmaXvwsufhcuXC6YILj2dwCVsM_bX9oKfDsabp232QcUKkT-YILWQC1CNN6mECAoeCboBI3rpiKE4MTbWyu9foywCaS3IATKa70YoCL0sDJwJbzf3K6sJoYOirhB3K54Mr6ixIafCmT0Qe8PtFsiy9stB1jL7MfMeocToqPBQZ-ZimX5G-Sx71nfzzZQANpk0ijmLeYy08Rebn9ZKm2KlI1Yk5zQa_emZW7NnmVv0cUPR3P0htUGQJpFKpNTnD6zRgAaq5QbluFkt4S0vVkAwmvC-e84N5_lpUSLatulX0t_Nr4p9ORgXkw5P9LfaNPpTmzgnpINjVCqShxGNIlfNEn4gghJi2zmFxddxW6LXFAeMkIcDDkK5JdN0DthedkvhPOfRVBPD9jZnvMyF36UPopKLRU1WeHrQP5AIr6nQve1B-PS7mnvUEHe7nqis139rEXNTw6OYlh7ZAk3bMNldAk5DtlfMFf41MzdPT4qUsk1FON3m-aI9HSBSAhdTIy6-yv0nj6bqW6xzk2mHvYOEyxFFRgeECn2uZYMd5homn3k8IkxXyv6LpOVu1_TVtdRXtDbjyJavjEXxuVTloX--lBU_5QJcT9-aiMoGtzhMvWuvVdiLmVZvk7zO1xFgmvyF_dNCwkVPhMs3emv4FBtruvS4w4mSmzc7NXpqVzjzi_7W55hVMWGzxRrMo_vTJVxzjnVgNvwAUgm_luVgQYwAi68t73JdQayCJf4tMHJDaJT9tGu9PxjTV?></g></svg>